<?xml version="1.0" encoding="utf-8"?>
<!-- Generator: Adobe Illustrator 23.0.3, SVG Export Plug-In . SVG Version: 6.00 Build 0)  -->
<svg version="1.1" id="Layer_1" xmlns="http://www.w3.org/2000/svg" xmlns:xlink="http://www.w3.org/1999/xlink" x="0px" y="0px"
	 viewBox="0 0 182.553 59.681" style="enable-background:new 0 0 182.553 59.681;" xml:space="preserve">
<style type="text/css">
	.st0{fill:#990000;}
	.st1{fill:none;stroke:#990000;stroke-width:0.4477;stroke-miterlimit:10;}
	.st2{fill:none;stroke:#990000;stroke-width:0.597;stroke-miterlimit:10;}
	.st3{fill:none;stroke:#990000;stroke-width:0.209;stroke-miterlimit:10;}
	.st4{fill:none;stroke:#990000;stroke-width:0.4678;stroke-miterlimit:10;}
	.st5{fill:none;stroke:#990000;stroke-width:0.2985;stroke-miterlimit:10;}
	.st6{fill:#990000;stroke:#990000;stroke-width:0.6513;stroke-miterlimit:10;}
	.st7{fill:#990000;stroke:#990000;stroke-width:0.6695;stroke-miterlimit:10;}
	.st8{fill:#990000;stroke:#990000;stroke-width:0.3347;stroke-miterlimit:10;}
	.st9{fill:#990000;stroke:#990000;stroke-width:0.5356;stroke-miterlimit:10;}
	.st10{fill:none;stroke:#990000;stroke-width:0.4686;stroke-miterlimit:10;}
	.st11{fill:#990000;stroke:#990000;stroke-width:0.2142;stroke-miterlimit:10;}
	.st12{fill:none;stroke:#990000;stroke-width:0.5072;stroke-miterlimit:10;}
	.st13{fill:none;}
	.st14{enable-background:new    ;}
	.st15{fill:#5E6060;}
	.st16{fill:none;stroke:#990000;stroke-width:1.5703;stroke-linecap:round;stroke-miterlimit:10;}
	.st17{fill:none;stroke:#990000;stroke-width:1.6518;stroke-miterlimit:10;}
	.st18{fill:#FFCD05;}
	.st19{fill:none;stroke:#FFCD05;stroke-width:0.4477;stroke-miterlimit:10;}
	.st20{fill:none;stroke:#FFCD05;stroke-width:0.597;stroke-miterlimit:10;}
	.st21{fill:none;stroke:#FFCD05;stroke-width:0.209;stroke-miterlimit:10;}
	.st22{fill:none;stroke:#FFCD05;stroke-width:0.4678;stroke-miterlimit:10;}
	.st23{fill:none;stroke:#FFCD05;stroke-width:0.2985;stroke-miterlimit:10;}
	.st24{fill:#FFCD05;stroke:#FFCD05;stroke-width:0.6513;stroke-miterlimit:10;}
	.st25{fill:#FFCD05;stroke:#FFCD05;stroke-width:0.6695;stroke-miterlimit:10;}
	.st26{fill:#FFCD05;stroke:#FFCD05;stroke-width:0.3347;stroke-miterlimit:10;}
	.st27{fill:#FFCD05;stroke:#FFCD05;stroke-width:0.5356;stroke-miterlimit:10;}
	.st28{fill:none;stroke:#FFCD05;stroke-width:0.4686;stroke-miterlimit:10;}
	.st29{fill:#FFCD05;stroke:#FFCD05;stroke-width:0.2142;stroke-miterlimit:10;}
	.st30{fill:none;stroke:#FFCD05;stroke-width:0.5072;stroke-miterlimit:10;}
	.st31{fill:#FFFFFF;}
	.st32{fill:none;stroke:#FFCD05;stroke-width:1.5703;stroke-linecap:round;stroke-miterlimit:10;}
	.st33{fill:none;stroke:#FFCD05;stroke-width:1.6518;stroke-miterlimit:10;}
	.st34{fill:#777576;}
	.st35{fill:#777576;stroke:#7A7878;stroke-width:0.9182;stroke-miterlimit:10;}
	.st36{fill:#7A7878;}
	.st37{fill:#797777;}
</style>
<g>
	<g>
		<path class="st18" d="M36.288,1.379c4.293,0,15.255,9.409,17.904,24.207c1.553,8.678-0.274,16.077-5.024,22.198
			c-4.293,5.572-9.5,5.938-12.972,5.116c-2.832-0.639-5.116-3.38-4.659-3.654c0.457-0.365,2.558,2.01,5.572,2.101
			c1.644,0,5.298,0,9.044-5.116c4.659-6.303,5.846-13.246,4.75-20.828C48.802,10.697,39.211,3.023,36.196,3.023
			c-2.284,0-4.659,1.736-5.938,2.923c-1.827,1.553-2.923,3.563-2.649,5.207c0.183,1.279,0.548,2.01,0.731,2.284
			c0.183,0.183,0.274,0.274,0.183,0.457c0,0.091-0.091,0.183-0.274,0.091c-0.457,0-2.192-1.736-2.649-3.563
			c-0.457-1.736,0.822-3.654,2.558-5.298C29.436,3.937,32.634,1.379,36.288,1.379z"/>
		<path class="st18" d="M33.182,41.207c-0.091-1.37-0.548-2.192-0.822-2.649c-0.091-0.183-0.183-0.365-0.091-0.548
			c0.091-0.091,0.183-0.091,0.274-0.091c0.457,0.091,2.649,2.284,2.649,4.202c0,3.837-7.491,10.048-11.053,10.688
			c-3.471,0.639-8.77-0.274-12.698-5.39c-4.659-6.12-6.303-13.52-4.75-22.198c1.096-6.212,3.928-11.693,7.765-16.626
			c1.827-2.284,4.019-4.567,6.577-6.029c1.279-0.731,2.74-1.188,4.202-1.279c1.462-0.091,4.385,1.279,3.745,1.827
			c-0.365,0.365-1.553-0.365-2.832-0.457c-1.37-0.091-2.74,0.457-3.928,1.096c-2.466,1.37-4.476,3.745-6.12,6.029
			c-3.38,4.567-5.481,9.957-6.303,15.529C8.7,32.803,9.522,39.928,14.09,46.14c3.745,5.116,7.947,5.116,9.318,4.842
			C28.34,49.885,33.547,44.313,33.182,41.207z"/>
		<path class="st18" d="M35.1,10.148c-0.274-1.918-2.466-4.385-2.923-4.476c-0.091,0-0.183,0-0.274,0.091
			c-0.091,0.183,0,0.274,0.091,0.548c0.274,0.365,1.005,1.462,1.005,2.832c0.091,1.37-1.188,3.289-3.563,5.481
			c-1.918,1.736-4.019,3.928-3.745,5.846c0.274,2.01,2.192,4.111,2.649,4.202c0.091,0,0.183,0,0.274-0.091
			c0.091-0.183,0-0.274-0.091-0.548c-0.274-0.365-0.731-1.188-0.822-2.649c-0.091-1.736,1.918-3.928,3.563-5.481
			C33.182,14.259,35.283,12.067,35.1,10.148z"/>
		<path class="st18" d="M35.1,20.836c-0.274-1.918-2.192-4.111-2.649-4.202c-0.091,0-0.183,0-0.274,0.091
			c-0.091,0.183,0,0.274,0.091,0.548c0.274,0.365,0.731,1.188,0.822,2.649c0.091,1.37-1.188,3.289-3.563,5.481
			c-1.918,1.736-4.019,3.928-3.745,5.846c0.274,2.01,2.192,4.111,2.649,4.202c0.091,0,0.183,0,0.274-0.091
			c0.091-0.183,0-0.274-0.091-0.548c-0.274-0.365-0.731-1.188-0.822-2.649c-0.091-1.736,1.918-3.928,3.563-5.481
			C33.182,24.947,35.283,22.755,35.1,20.836z"/>
		<path class="st18" d="M35.283,31.524c-0.274-1.918-2.192-4.111-2.649-4.202c-0.091,0-0.183,0-0.274,0.091
			c-0.091,0.183,0,0.274,0.091,0.548c0.274,0.365,0.731,1.188,0.822,2.649c0.091,1.37-1.188,3.289-3.563,5.481
			c-1.918,1.736-4.019,3.928-3.745,5.846c0.274,2.01,2.558,4.476,3.106,4.567c0.091,0,0.183,0,0.274-0.091
			c0.091-0.183,0-0.274-0.091-0.548c-0.274-0.365-1.096-1.553-1.188-3.015c-0.091-1.736,1.918-3.928,3.563-5.481
			C33.365,35.635,35.557,33.442,35.283,31.524z"/>
	</g>
</g>
<rect x="65.868" y="1.18" class="st18" width="8.985" height="41.505"/>
<path class="st18" d="M104.799,43.781c-7.449,0-13.477-2.617-17.916-7.778c-3.395-3.909-5.121-8.585-5.121-13.888
	c0-3.946,0.953-7.518,2.914-10.922c2.047-3.449,4.786-6.113,8.158-7.953c3.397-1.853,7.238-2.792,11.417-2.792
	c3.392,0,6.532,0.591,9.597,1.807c2.978,1.008,5.882,2.903,8.878,5.79l2.021,1.947l-6.764,6.329L116.16,14.5
	c-1.741-1.741-3.635-3.015-5.79-3.893c-2.137-0.904-4.154-1.355-6.028-1.355c-2.348,0-4.66,0.6-6.872,1.785
	c-2.12,1.136-3.765,2.699-4.888,4.646c-1.157,2.006-1.744,4.109-1.744,6.25c0,2.244,0.596,4.339,1.821,6.405
	c1.219,2.059,2.853,3.617,4.994,4.765c2.211,1.185,4.645,1.785,7.237,1.785c3.145,0,5.669-0.818,7.718-2.5
	c1.185-0.974,2.093-2.113,2.715-3.405h-10.633v-8.802h20.952v2.666c0,6.248-1.953,11.37-5.805,15.222
	C116.048,41.859,110.988,43.781,104.799,43.781z"/>
<path class="st18" d="M152.758,43.69c-7.11,0-12.827-2.428-16.993-7.219c-3.464-3.975-5.221-8.898-5.221-14.63
	c0-6.091,2.153-11.228,6.402-15.268c4.156-4.056,9.485-6.124,15.813-6.124c3.832,0,7.186,0.737,10.248,2.252
	c3.208,1.362,5.769,3.447,7.827,6.37l1.466,2.083l-6.956,5.385l-1.631-2.112c-1.28-1.657-2.877-2.97-4.747-3.905
	c-1.711-0.856-3.712-1.271-6.116-1.271c-2.4,0-4.606,0.578-6.744,1.765c-1.986,1.104-3.589,2.656-4.764,4.613
	c-1.104,1.916-1.63,3.989-1.63,6.485c0,3.646,1.264,6.721,3.757,9.139c2.521,2.444,5.649,3.633,9.563,3.633
	c4.224,0,7.816-1.686,10.677-5.011l1.651-1.919l6.974,5.401l-1.692,2.115c-2.23,2.788-4.775,4.776-7.781,6.079
	C159.803,42.98,156.477,43.69,152.758,43.69z"/>
<g class="st14">
	<path class="st31" d="M60.343,51.741c0-0.285-0.036-2.423-0.047-2.6c-0.024-0.285-0.143-0.404-0.594-0.404h-0.689
		c-0.06,0-0.095-0.024-0.095-0.071v-0.32c0-0.048,0.036-0.071,0.084-0.071c0.142,0,0.748,0.036,1.852,0.036
		c1.057,0,1.437-0.036,1.604-0.036c0.059,0,0.083,0.036,0.083,0.083v0.297c0,0.059-0.036,0.083-0.095,0.083h-0.558
		c-0.238,0-0.416,0.095-0.416,0.333c0,0.119-0.036,2.743-0.036,2.886v0.914c0,0.119,0.036,2.862,0.036,2.993
		c0,0.368,0.178,0.427,0.558,0.427h0.487c0.06,0,0.095,0.023,0.095,0.083v0.309c0,0.047-0.036,0.071-0.107,0.071
		c-0.143,0-0.617-0.036-1.651-0.036c-1.128,0-1.639,0.036-1.769,0.036c-0.06,0-0.095-0.024-0.095-0.071v-0.32
		c0-0.048,0.036-0.071,0.095-0.071h0.665c0.238,0,0.487-0.036,0.534-0.344c0.024-0.178,0.06-2.743,0.06-3.373V51.741z"/>
	<path class="st31" d="M67.527,53.676c0-0.879-0.167-1.104-0.357-1.283c-0.154-0.143-0.499-0.213-0.76-0.213
		c-0.309,0-0.807,0.154-1.14,0.689c-0.143,0.237-0.166,0.463-0.166,0.796v2.352c0,0.19,0.071,0.309,0.237,0.309h0.427
		c0.107,0,0.119,0.023,0.119,0.106v0.191c0,0.083-0.012,0.13-0.095,0.13c-0.107,0-0.427-0.036-1.08-0.036
		c-0.63,0-1.01,0.036-1.105,0.036c-0.07,0-0.095-0.024-0.095-0.107v-0.214c0-0.095,0.024-0.106,0.143-0.106h0.403
		c0.107,0,0.167-0.071,0.178-0.297c0.012-0.202,0.012-0.416,0.012-0.617v-2.114c0-0.237-0.047-0.451-0.332-0.606l-0.25-0.13
		c-0.06-0.036-0.083-0.06-0.083-0.095V52.37c0-0.036,0.047-0.084,0.071-0.095l1.045-0.534c0.095-0.047,0.178-0.071,0.226-0.071
		c0.071,0,0.107,0.083,0.107,0.167l0.047,0.689h0.036c0.357-0.487,1.057-0.903,1.746-0.903c0.617,0,1.093,0.356,1.342,0.914h0.06
		c0.356-0.463,1.033-0.914,1.746-0.914c0.416,0,0.784,0.071,1.069,0.356c0.273,0.285,0.57,0.547,0.57,1.461v2.648
		c0,0.178,0.107,0.238,0.25,0.238h0.32c0.107,0,0.13,0.023,0.13,0.106v0.203c0,0.083-0.023,0.119-0.083,0.119
		c-0.083,0-0.416-0.036-0.986-0.036c-0.593,0-1.021,0.036-1.104,0.036c-0.071,0-0.095-0.036-0.095-0.119v-0.203
		c0-0.083,0.023-0.106,0.154-0.106h0.297c0.13,0,0.226-0.06,0.237-0.226c0.024-0.273,0.024-0.701,0.024-0.963v-1.757
		c0-0.392-0.071-0.736-0.345-0.95c-0.213-0.166-0.522-0.249-0.879-0.249c-0.356,0-0.843,0.273-1.033,0.617
		c-0.178,0.344-0.166,0.665-0.166,1.199v2.054c0,0.155,0.059,0.274,0.237,0.274h0.404c0.106,0,0.13,0.023,0.13,0.106v0.191
		c0,0.095-0.024,0.13-0.083,0.13c-0.083,0-0.392-0.036-1.057-0.036c-0.641,0-1.045,0.036-1.116,0.036
		c-0.06,0-0.083-0.036-0.083-0.119v-0.19c0-0.095,0.012-0.119,0.119-0.119h0.344c0.19,0,0.261-0.048,0.261-0.203V53.676z"/>
	<path class="st31" d="M76.647,55.304c0,0.677,0.143,0.89,0.357,0.89c0.19,0,0.356-0.095,0.416-0.178
		c0.047-0.06,0.07-0.084,0.119-0.048l0.119,0.095c0.036,0.036,0.059,0.095-0.012,0.213c-0.095,0.178-0.32,0.583-0.926,0.583
		c-0.427,0-0.736-0.309-0.843-0.796h-0.024c-0.249,0.297-0.641,0.546-1.176,0.724c-0.226,0.071-0.439,0.071-0.7,0.071
		c-0.285,0-0.713-0.237-0.713-0.986c0-0.547,0.25-1.021,1.187-1.437c0.534-0.237,1.153-0.523,1.343-0.689v-0.76
		c-0.024-0.202-0.036-0.511-0.167-0.665c-0.13-0.154-0.368-0.26-0.712-0.26c-0.238,0-0.606,0.095-0.773,0.249
		c-0.166,0.154-0.059,0.333-0.059,0.546c0,0.416-0.143,0.677-0.63,0.677c-0.19,0-0.285-0.107-0.285-0.38
		c0-0.38,0.332-0.831,0.819-1.116c0.499-0.297,0.914-0.416,1.449-0.416c0.558,0,0.784,0.166,0.95,0.32
		c0.25,0.25,0.261,0.523,0.261,0.844v1.816V55.304z M75.78,54.104c-0.427,0.321-1.591,0.558-1.591,1.544
		c0,0.439,0.26,0.653,0.617,0.653c0.344,0,0.973-0.416,0.973-0.736V54.104z"/>
	<path class="st31" d="M78.5,59.567c-0.428-0.261-0.606-0.57-0.606-0.962c0-0.665,0.676-1.176,1.246-1.426v-0.047
		c-0.499-0.107-0.796-0.475-0.796-0.831c0-0.57,0.654-0.974,1.07-1.128v-0.023c-0.464-0.203-1.104-0.748-1.104-1.806
		c0-0.772,0.689-1.722,2.03-1.722c0.903,0,1.377,0.546,1.496,0.689c0.321-0.226,0.724-0.463,1.117-0.463
		c0.392,0,0.582,0.261,0.558,0.499c0,0.226-0.19,0.44-0.463,0.44c-0.202,0-0.32-0.095-0.416-0.178
		c-0.071-0.047-0.154-0.107-0.249-0.107c-0.083,0-0.226,0-0.38,0.071c0.095,0.237,0.178,0.499,0.178,0.903
		c0,0.463-0.13,0.914-0.439,1.282c-0.309,0.345-0.986,0.594-1.377,0.594c-0.261,0-0.428-0.012-0.606-0.06
		c-0.238,0.095-0.63,0.333-0.63,0.665c0,0.487,0.594,0.451,1.39,0.404c0.973-0.048,1.567,0.059,2.042,0.427
		c0.511,0.38,0.57,0.855,0.583,1.14c0,0.558-0.202,1.021-0.796,1.46c-0.309,0.226-1.021,0.558-2.031,0.558
		C79.746,59.947,79.07,59.887,78.5,59.567z M82.419,58.344c0-0.701-0.534-1.236-1.723-1.153l-1.14,0.084
		c-0.368,0.095-0.95,0.499-0.95,1.14c0,0.296,0.226,0.653,0.464,0.819c0.392,0.273,0.819,0.333,1.662,0.333
		C81.172,59.567,82.478,59.258,82.419,58.344z M81.315,53.285c0-0.523-0.107-0.831-0.321-1.069c-0.154-0.154-0.392-0.261-0.57-0.261
		c-0.273,0-0.558,0.047-0.843,0.332c-0.38,0.404-0.427,0.95-0.427,1.401c0,0.404,0.13,0.773,0.38,1.034
		c0.213,0.202,0.427,0.296,0.712,0.296C81.053,55.018,81.315,54.032,81.315,53.285z"/>
	<path class="st31" d="M84.698,53.261c0-0.404-0.071-0.617-0.665-0.713c-0.084-0.012-0.107-0.036-0.107-0.083v-0.107
		c0-0.036,0.023-0.059,0.083-0.083c0.38-0.143,0.831-0.333,1.283-0.582c0.095-0.047,0.154-0.071,0.226-0.071
		c0.059,0,0.071,0.06,0.059,0.143c-0.023,0.202-0.023,0.95-0.023,1.936v1.294c0,0.463,0,0.89,0.012,1.021
		c0.024,0.226,0.059,0.309,0.19,0.309h0.546c0.095,0,0.119,0.036,0.119,0.106v0.203c0,0.083-0.023,0.119-0.106,0.119
		c-0.095,0-0.641-0.036-1.14-0.036c-0.69,0-1.153,0.036-1.283,0.036c-0.06,0-0.095-0.024-0.095-0.095V56.42
		c0-0.071,0.036-0.095,0.119-0.095h0.583c0.13,0,0.178-0.048,0.19-0.238c0.012-0.356,0.012-0.724,0.012-1.08V53.261z M84.164,49.639
		c0-0.297,0.25-0.617,0.724-0.617c0.416,0,0.617,0.32,0.617,0.582c0,0.309-0.213,0.653-0.689,0.653
		C84.556,50.256,84.164,50.019,84.164,49.639z"/>
	<path class="st31" d="M91.979,56.075c0,0.19,0.107,0.25,0.261,0.25h0.38c0.106,0,0.13,0.036,0.13,0.106v0.191
		c0,0.083-0.024,0.13-0.095,0.13c-0.084,0-0.451-0.036-1.128-0.036c-0.606,0-0.986,0.036-1.069,0.036
		c-0.071,0-0.095-0.036-0.095-0.13v-0.191c0-0.083,0.036-0.106,0.154-0.106h0.344c0.131,0,0.226-0.06,0.238-0.274
		c0.012-0.309,0.023-0.689,0.023-0.997v-1.567c0-0.475,0-0.82-0.344-1.069c-0.285-0.214-0.57-0.214-0.867-0.214
		c-0.19,0-0.606,0.083-0.962,0.463c-0.237,0.261-0.273,0.583-0.273,0.808v2.458c0,0.321,0.036,0.393,0.285,0.393h0.297
		c0.095,0,0.119,0.036,0.119,0.119v0.202c0,0.071-0.023,0.107-0.083,0.107c-0.083,0-0.404-0.036-1.033-0.036
		c-0.606,0-0.986,0.036-1.057,0.036c-0.059,0-0.083-0.036-0.083-0.107v-0.214c0-0.07,0.024-0.106,0.119-0.106h0.344
		c0.154,0,0.237-0.036,0.237-0.238v-2.779c0-0.356-0.19-0.558-0.486-0.7L87.24,52.56c-0.083-0.036-0.095-0.071-0.095-0.107v-0.06
		c0-0.059,0.047-0.095,0.106-0.119l1.021-0.57c0.095-0.047,0.167-0.083,0.214-0.083c0.059,0,0.083,0.047,0.095,0.143l0.084,0.724
		h0.023c0.344-0.427,1.033-0.867,1.627-0.867c0.356,0,0.724,0.071,1.01,0.261c0.356,0.237,0.653,0.831,0.653,1.128V56.075z"/>
	<path class="st31" d="M93.748,59.567c-0.427-0.261-0.606-0.57-0.606-0.962c0-0.665,0.677-1.176,1.247-1.426v-0.047
		c-0.499-0.107-0.796-0.475-0.796-0.831c0-0.57,0.653-0.974,1.069-1.128v-0.023c-0.463-0.203-1.104-0.748-1.104-1.806
		c0-0.772,0.689-1.722,2.03-1.722c0.903,0,1.378,0.546,1.497,0.689c0.32-0.226,0.724-0.463,1.116-0.463
		c0.393,0,0.583,0.261,0.558,0.499c0,0.226-0.19,0.44-0.463,0.44c-0.202,0-0.321-0.095-0.416-0.178
		c-0.071-0.047-0.154-0.107-0.25-0.107c-0.083,0-0.226,0-0.38,0.071c0.095,0.237,0.178,0.499,0.178,0.903
		c0,0.463-0.131,0.914-0.44,1.282c-0.309,0.345-0.986,0.594-1.377,0.594c-0.261,0-0.427-0.012-0.606-0.06
		c-0.237,0.095-0.629,0.333-0.629,0.665c0,0.487,0.593,0.451,1.389,0.404c0.974-0.048,1.567,0.059,2.043,0.427
		c0.51,0.38,0.57,0.855,0.582,1.14c0,0.558-0.202,1.021-0.796,1.46c-0.309,0.226-1.021,0.558-2.03,0.558
		C94.995,59.947,94.318,59.887,93.748,59.567z M97.666,58.344c0-0.701-0.534-1.236-1.722-1.153l-1.14,0.084
		c-0.368,0.095-0.95,0.499-0.95,1.14c0,0.296,0.226,0.653,0.463,0.819c0.392,0.273,0.82,0.333,1.663,0.333
		C96.419,59.567,97.726,59.258,97.666,58.344z M96.562,53.285c0-0.523-0.107-0.831-0.32-1.069c-0.154-0.154-0.393-0.261-0.57-0.261
		c-0.274,0-0.558,0.047-0.844,0.332c-0.38,0.404-0.427,0.95-0.427,1.401c0,0.404,0.131,0.773,0.38,1.034
		c0.214,0.202,0.427,0.296,0.713,0.296C96.301,55.018,96.562,54.032,96.562,53.285z"/>
	<path class="st31" d="M109.032,54.092c0-0.427-0.131-0.546-0.487-0.546h-0.499c-0.06,0-0.083-0.024-0.083-0.071v-0.297
		c0-0.071,0.012-0.095,0.071-0.095c0.166,0,0.7,0.036,1.508,0.036c0.856,0,1.236-0.036,1.401-0.036c0.083,0,0.095,0.036,0.095,0.084
		v0.285c0,0.047-0.012,0.095-0.084,0.095h-0.463c-0.213,0-0.368,0.083-0.368,0.451v1.568c0,0.166,0.047,0.285,0.047,0.38
		c0,0.095-0.071,0.142-0.19,0.19c-0.963,0.487-1.913,0.76-3.243,0.76c-1.056,0-2.505-0.393-3.325-1.354
		c-0.724-0.819-1.093-1.829-1.093-3.266c0-1.08,0.463-2.233,1.343-3.016c0.843-0.724,1.912-1.128,3.336-1.128
		c1.021,0,1.936,0.38,2.34,0.689c0.13,0.107,0.202,0.083,0.273-0.012l0.178-0.214c0.047-0.047,0.095-0.107,0.166-0.107
		c0.083,0,0.107,0.06,0.107,0.143l0.036,2.269c0,0.059-0.012,0.107-0.06,0.107l-0.213,0.023c-0.048,0-0.083-0.036-0.095-0.095
		c-0.095-0.333-0.297-0.891-0.713-1.401c-0.356-0.44-1.092-0.974-2.161-0.974c-0.82,0-1.556,0.203-2.269,0.963
		c-0.641,0.676-1.046,1.662-1.046,2.731c0,1.401,0.393,2.625,1.128,3.326c0.594,0.57,1.318,0.843,2.09,0.843
		c0.95,0,1.532-0.166,1.947-0.403c0.274-0.167,0.321-0.428,0.321-1.046V54.092z"/>
	<path class="st31" d="M112.831,53.558c-0.023,0.107-0.036,0.297-0.036,0.57c0,1.163,0.737,2.043,1.687,2.043
		c0.724,0,1.235-0.416,1.436-0.808c0.024-0.047,0.071-0.071,0.107-0.059l0.154,0.083c0.036,0.012,0.06,0.047,0,0.178
		c-0.213,0.475-0.831,1.294-1.888,1.294c-0.677,0-1.426-0.203-1.864-0.843c-0.416-0.606-0.523-1.046-0.523-1.877
		c0-0.463,0.119-1.259,0.748-1.889c0.511-0.522,1.105-0.629,1.699-0.629c1.366,0,1.746,1.283,1.746,1.746
		c0,0.166-0.143,0.19-0.333,0.19H112.831z M114.719,53.202c0.226,0,0.32-0.06,0.32-0.167c0-0.273-0.142-1.057-0.914-1.057
		c-0.523,0-1.021,0.344-1.247,1.224H114.719z"/>
	<path class="st31" d="M121.844,56.075c0,0.19,0.107,0.25,0.261,0.25h0.38c0.107,0,0.131,0.036,0.131,0.106v0.191
		c0,0.083-0.024,0.13-0.095,0.13c-0.083,0-0.451-0.036-1.128-0.036c-0.606,0-0.986,0.036-1.069,0.036
		c-0.071,0-0.095-0.036-0.095-0.13v-0.191c0-0.083,0.036-0.106,0.154-0.106h0.344c0.13,0,0.226-0.06,0.237-0.274
		c0.012-0.309,0.024-0.689,0.024-0.997v-1.567c0-0.475,0-0.82-0.344-1.069c-0.285-0.214-0.57-0.214-0.867-0.214
		c-0.19,0-0.606,0.083-0.962,0.463c-0.238,0.261-0.274,0.583-0.274,0.808v2.458c0,0.321,0.036,0.393,0.285,0.393h0.297
		c0.095,0,0.119,0.036,0.119,0.119v0.202c0,0.071-0.024,0.107-0.083,0.107c-0.084,0-0.404-0.036-1.034-0.036
		c-0.606,0-0.986,0.036-1.056,0.036c-0.06,0-0.084-0.036-0.084-0.107v-0.214c0-0.07,0.024-0.106,0.12-0.106h0.344
		c0.154,0,0.237-0.036,0.237-0.238v-2.779c0-0.356-0.19-0.558-0.487-0.7l-0.095-0.047c-0.084-0.036-0.095-0.071-0.095-0.107v-0.06
		c0-0.059,0.047-0.095,0.107-0.119l1.021-0.57c0.095-0.047,0.166-0.083,0.213-0.083c0.06,0,0.084,0.047,0.095,0.143l0.083,0.724
		h0.024c0.344-0.427,1.033-0.867,1.626-0.867c0.357,0,0.725,0.071,1.01,0.261c0.356,0.237,0.653,0.831,0.653,1.128V56.075z"/>
	<path class="st31" d="M124.208,53.558c-0.024,0.107-0.036,0.297-0.036,0.57c0,1.163,0.736,2.043,1.686,2.043
		c0.724,0,1.236-0.416,1.437-0.808c0.024-0.047,0.071-0.071,0.107-0.059l0.154,0.083c0.036,0.012,0.059,0.047,0,0.178
		c-0.214,0.475-0.831,1.294-1.889,1.294c-0.677,0-1.425-0.203-1.864-0.843c-0.416-0.606-0.523-1.046-0.523-1.877
		c0-0.463,0.119-1.259,0.748-1.889c0.51-0.522,1.104-0.629,1.699-0.629c1.366,0,1.746,1.283,1.746,1.746
		c0,0.166-0.143,0.19-0.333,0.19H124.208z M126.095,53.202c0.226,0,0.321-0.06,0.321-0.167c0-0.273-0.143-1.057-0.914-1.057
		c-0.523,0-1.021,0.344-1.247,1.224H126.095z"/>
	<path class="st31" d="M129.908,55.232c0,0.89,0.403,1.045,0.617,1.045c0.273,0,0.617-0.047,0.783-0.154
		c0.06-0.036,0.107-0.023,0.143,0.024l0.06,0.107c0.036,0.047,0.012,0.095-0.024,0.13c-0.119,0.119-0.606,0.475-1.318,0.475
		c-0.582,0-1.152-0.558-1.152-1.01c0-0.487,0.036-1.532,0.036-1.699v-0.26c0-0.214,0.012-1.01,0.024-1.509h-0.724
		c-0.107,0-0.178-0.047-0.178-0.143c0-0.095,0.071-0.13,0.214-0.213c0.285-0.167,1.199-1.093,1.353-1.497
		c0.036-0.095,0.095-0.119,0.167-0.119c0.095,0,0.119,0.083,0.119,0.178l-0.06,1.176h1.651c0.07,0,0.106,0.059,0.083,0.106
		l-0.119,0.416c-0.012,0.06-0.036,0.095-0.107,0.095h-1.533c-0.023,0.546-0.035,1.116-0.035,1.663V55.232z"/>
	<path class="st31" d="M132.9,53.261c0-0.404-0.071-0.617-0.665-0.713c-0.084-0.012-0.107-0.036-0.107-0.083v-0.107
		c0-0.036,0.023-0.059,0.083-0.083c0.38-0.143,0.831-0.333,1.283-0.582c0.095-0.047,0.154-0.071,0.226-0.071
		c0.059,0,0.071,0.06,0.059,0.143c-0.023,0.202-0.023,0.95-0.023,1.936v1.294c0,0.463,0,0.89,0.012,1.021
		c0.024,0.226,0.059,0.309,0.19,0.309h0.546c0.095,0,0.119,0.036,0.119,0.106v0.203c0,0.083-0.023,0.119-0.106,0.119
		c-0.095,0-0.641-0.036-1.14-0.036c-0.69,0-1.153,0.036-1.283,0.036c-0.06,0-0.095-0.024-0.095-0.095V56.42
		c0-0.071,0.036-0.095,0.119-0.095h0.583c0.13,0,0.178-0.048,0.19-0.238c0.012-0.356,0.012-0.724,0.012-1.08V53.261z
		 M132.366,49.639c0-0.297,0.25-0.617,0.724-0.617c0.416,0,0.617,0.32,0.617,0.582c0,0.309-0.213,0.653-0.689,0.653
		C132.757,50.256,132.366,50.019,132.366,49.639z"/>
	<path class="st31" d="M136.166,53.842c0,0.641,0.285,1.366,0.606,1.806c0.392,0.51,0.89,0.606,1.294,0.606
		c0.593,0,0.902-0.131,1.306-0.511c0.024-0.023,0.06-0.036,0.095,0l0.12,0.12c0.047,0.047,0.059,0.083,0,0.154
		c-0.344,0.392-1.104,0.843-1.913,0.843c-0.629,0-1.294-0.143-1.84-0.831c-0.44-0.582-0.534-1.081-0.534-1.616
		c0-1.389,0.973-2.79,2.542-2.79c1.235,0,1.615,0.713,1.615,0.962c-0.012,0.273-0.19,0.416-0.439,0.416
		c-0.274,0-0.475-0.154-0.654-0.475c-0.26-0.487-0.51-0.523-0.796-0.523C136.89,52.002,136.166,52.619,136.166,53.842z"/>
	<path class="st31" d="M140.512,56.515c-0.06-0.036-0.06-0.107-0.071-0.167l-0.202-1.128c-0.012-0.06,0.023-0.084,0.071-0.095
		l0.154-0.036c0.047-0.012,0.083,0.012,0.107,0.071l0.296,0.582c0.238,0.44,0.404,0.737,1.034,0.737c0.416,0,0.938-0.25,0.938-0.808
		c0-0.534-0.261-0.843-1.152-1.092c-0.7-0.202-1.401-0.57-1.401-1.509c0-0.82,0.772-1.449,1.663-1.449
		c0.57,0,0.879,0.143,1.093,0.249c0.178,0.084,0.202,0.143,0.213,0.214l0.178,0.831c0,0.047-0.024,0.083-0.083,0.107l-0.143,0.047
		c-0.047,0.012-0.071,0-0.107-0.06l-0.403-0.546c-0.143-0.226-0.368-0.463-0.831-0.463c-0.451,0-0.914,0.273-0.914,0.784
		c0,0.689,0.558,0.819,1.14,0.985c0.866,0.25,1.413,0.606,1.425,1.52c-0.012,0.963-0.796,1.568-1.805,1.568
		C141.129,56.859,140.655,56.622,140.512,56.515z"/>
	<path class="st31" d="M148.825,55.802c-0.855-0.807-1.27-2.186-1.27-3.326c0-1.104,0.356-2.244,1.211-3.146
		c0.606-0.641,1.674-1.2,2.969-1.2c1.08,0,1.971,0.404,2.399,0.653c0.154,0.095,0.213,0.083,0.237,0l0.095-0.344
		c0.023-0.071,0.047-0.071,0.154-0.071c0.106,0,0.13,0.024,0.13,0.19c0,0.226,0.237,1.971,0.297,2.304
		c0.012,0.06,0,0.107-0.047,0.119l-0.178,0.047c-0.06,0.012-0.083,0-0.119-0.095c-0.167-0.392-0.427-0.963-0.927-1.473
		c-0.499-0.51-1.128-0.914-2.066-0.914c-2.126,0-2.98,1.889-2.969,3.622c0,0.689,0.214,2.031,1.14,3.053
		c0.807,0.902,1.484,0.997,2.28,0.997c1.342,0,2.387-0.736,2.933-1.509c0.036-0.059,0.06-0.071,0.095-0.036l0.154,0.119
		c0.036,0.024,0.059,0.048,0.023,0.107c-0.712,1.033-1.864,1.996-3.539,1.996C150.428,56.895,149.537,56.455,148.825,55.802z"/>
	<path class="st31" d="M157.208,53.558c-0.023,0.107-0.036,0.297-0.036,0.57c0,1.163,0.737,2.043,1.687,2.043
		c0.724,0,1.235-0.416,1.436-0.808c0.024-0.047,0.071-0.071,0.107-0.059l0.154,0.083c0.036,0.012,0.06,0.047,0,0.178
		c-0.213,0.475-0.831,1.294-1.888,1.294c-0.677,0-1.426-0.203-1.864-0.843c-0.416-0.606-0.523-1.046-0.523-1.877
		c0-0.463,0.119-1.259,0.748-1.889c0.511-0.522,1.105-0.629,1.699-0.629c1.366,0,1.746,1.283,1.746,1.746
		c0,0.166-0.143,0.19-0.333,0.19H157.208z M159.097,53.202c0.226,0,0.32-0.06,0.32-0.167c0-0.273-0.142-1.057-0.914-1.057
		c-0.523,0-1.021,0.344-1.247,1.224H159.097z"/>
	<path class="st31" d="M166.222,56.075c0,0.19,0.107,0.25,0.261,0.25h0.38c0.107,0,0.131,0.036,0.131,0.106v0.191
		c0,0.083-0.024,0.13-0.095,0.13c-0.083,0-0.451-0.036-1.128-0.036c-0.606,0-0.986,0.036-1.069,0.036
		c-0.071,0-0.095-0.036-0.095-0.13v-0.191c0-0.083,0.036-0.106,0.154-0.106h0.344c0.13,0,0.226-0.06,0.237-0.274
		c0.012-0.309,0.024-0.689,0.024-0.997v-1.567c0-0.475,0-0.82-0.344-1.069c-0.285-0.214-0.57-0.214-0.867-0.214
		c-0.19,0-0.606,0.083-0.962,0.463c-0.238,0.261-0.274,0.583-0.274,0.808v2.458c0,0.321,0.036,0.393,0.285,0.393h0.297
		c0.095,0,0.119,0.036,0.119,0.119v0.202c0,0.071-0.024,0.107-0.083,0.107c-0.084,0-0.404-0.036-1.034-0.036
		c-0.606,0-0.986,0.036-1.056,0.036c-0.06,0-0.084-0.036-0.084-0.107v-0.214c0-0.07,0.024-0.106,0.12-0.106h0.344
		c0.154,0,0.237-0.036,0.237-0.238v-2.779c0-0.356-0.19-0.558-0.487-0.7l-0.095-0.047c-0.084-0.036-0.095-0.071-0.095-0.107v-0.06
		c0-0.059,0.047-0.095,0.107-0.119l1.021-0.57c0.095-0.047,0.166-0.083,0.213-0.083c0.06,0,0.084,0.047,0.095,0.143l0.083,0.724
		h0.024c0.344-0.427,1.033-0.867,1.626-0.867c0.357,0,0.725,0.071,1.01,0.261c0.356,0.237,0.653,0.831,0.653,1.128V56.075z"/>
	<path class="st31" d="M169.226,55.232c0,0.89,0.404,1.045,0.617,1.045c0.273,0,0.618-0.047,0.784-0.154
		c0.059-0.036,0.107-0.023,0.143,0.024l0.059,0.107c0.036,0.047,0.012,0.095-0.023,0.13c-0.12,0.119-0.606,0.475-1.318,0.475
		c-0.582,0-1.152-0.558-1.152-1.01c0-0.487,0.036-1.532,0.036-1.699v-0.26c0-0.214,0.012-1.01,0.023-1.509h-0.724
		c-0.107,0-0.178-0.047-0.178-0.143c0-0.095,0.071-0.13,0.214-0.213c0.285-0.167,1.2-1.093,1.354-1.497
		c0.036-0.095,0.095-0.119,0.166-0.119c0.095,0,0.119,0.083,0.119,0.178l-0.059,1.176h1.65c0.071,0,0.107,0.059,0.083,0.106
		l-0.119,0.416c-0.012,0.06-0.036,0.095-0.107,0.095h-1.532c-0.024,0.546-0.036,1.116-0.036,1.663V55.232z"/>
	<path class="st31" d="M172.373,53.558c-0.023,0.107-0.036,0.297-0.036,0.57c0,1.163,0.737,2.043,1.687,2.043
		c0.724,0,1.235-0.416,1.436-0.808c0.024-0.047,0.071-0.071,0.107-0.059l0.154,0.083c0.036,0.012,0.06,0.047,0,0.178
		c-0.213,0.475-0.831,1.294-1.888,1.294c-0.677,0-1.426-0.203-1.864-0.843c-0.416-0.606-0.523-1.046-0.523-1.877
		c0-0.463,0.119-1.259,0.748-1.889c0.511-0.522,1.105-0.629,1.699-0.629c1.366,0,1.746,1.283,1.746,1.746
		c0,0.166-0.143,0.19-0.333,0.19H172.373z M174.261,53.202c0.226,0,0.32-0.06,0.32-0.167c0-0.273-0.142-1.057-0.914-1.057
		c-0.523,0-1.021,0.344-1.247,1.224H174.261z"/>
	<path class="st31" d="M177.219,53.558c0-0.606-0.095-0.724-0.428-0.903l-0.226-0.119c-0.071-0.024-0.095-0.036-0.095-0.083v-0.071
		c0-0.047,0.023-0.071,0.095-0.107l1.176-0.606c0.071-0.036,0.119-0.047,0.167-0.047c0.071,0,0.083,0.071,0.083,0.143l0.059,0.819
		h0.048c0.356-0.546,0.914-1.033,1.425-1.033c0.404,0,0.606,0.25,0.606,0.523c0,0.344-0.285,0.582-0.499,0.582
		c-0.13,0-0.25-0.047-0.344-0.095c-0.095-0.06-0.237-0.095-0.392-0.095c-0.19,0-0.5,0.119-0.701,0.499
		c-0.071,0.131-0.119,0.344-0.119,0.38v2.494c0,0.368,0.083,0.487,0.333,0.487h0.558c0.071,0,0.084,0.036,0.084,0.106v0.214
		c0,0.071-0.012,0.107-0.06,0.107c-0.071,0-0.617-0.036-1.259-0.036c-0.736,0-1.236,0.036-1.306,0.036
		c-0.048,0-0.071-0.024-0.071-0.119v-0.203c0-0.083,0.023-0.106,0.13-0.106h0.463c0.178,0,0.261-0.071,0.261-0.226
		c0.012-0.393,0.012-0.808,0.012-1.426V53.558z"/>
</g>
</svg>
